<svg xmlns="http://www.w3.org/2000/svg" viewBox="0 0 960 540" role="img" aria-labelledby="title desc">
  <title id="title">Parent and child looking at picture cards</title>
  <desc id="desc">A calm illustration of a caregiver and child at a table with simple picture cards and toys.</desc>
  <defs><linearGradient id="wall" x1="0" x2="1" y1="0" y2="1"><stop offset="0" stop-color="#f8fbfb"/><stop offset="1" stop-color="#e7f3f1"/></linearGradient><linearGradient id="table" x1="0" x2="1"><stop offset="0" stop-color="#f1d8b8"/><stop offset="1" stop-color="#d9b588"/></linearGradient></defs>
  <rect width="960" height="540" fill="url(#wall)"/><circle cx="770" cy="120" r="82" fill="#b8dedd"/><circle cx="840" cy="188" r="36" fill="#efaa8f"/><rect x="670" y="250" width="164" height="58" rx="12" fill="#e8c7a1"/><rect x="700" y="204" width="104" height="58" rx="10" fill="#fff8ef"/>
  <path d="M113 268c22-42 65-62 101-47 40 16 52 67 32 105-24 45-80 64-117 38-31-22-35-61-16-96z" fill="#d6e9d8"/><path d="M0 340h960v200H0z" fill="url(#table)"/><path d="M0 340h960v35H0z" fill="#f6e7d0" opacity=".55"/>
  <ellipse cx="315" cy="204" rx="80" ry="91" fill="#f2c2a4"/><path d="M226 176c15-74 86-111 151-87 56 21 84 78 73 139-40-34-90-47-151-39-31 4-53 0-73-13z" fill="#30343b"/><path d="M200 318c32-69 76-105 132-105 62 0 105 37 139 105l28 57H171z" fill="#f7f2ea"/><path d="M248 297c31 29 72 31 111 2" fill="none" stroke="#d8b896" stroke-width="9" stroke-linecap="round"/>
  <circle cx="604" cy="222" r="62" fill="#f0bd98"/><path d="M540 204c6-52 50-82 100-68 44 12 67 52 61 95-23-23-53-34-92-32-28 2-49 0-69 5z" fill="#333334"/><path d="M518 320c24-51 55-77 94-77 43 0 76 29 99 77l25 55H493z" fill="#f6f0e5"/><path d="M588 252c18 17 39 18 58 1" fill="none" stroke="#c69072" stroke-width="6" stroke-linecap="round"/>
  <g transform="translate(328 374)"><rect width="115" height="74" rx="13" fill="#fffaf4" stroke="#d8c3a8"/><circle cx="43" cy="38" r="20" fill="#ef8069"/><path d="M61 25c7-9 16-12 27-10-5 9-12 15-25 18z" fill="#7eb982"/></g>
  <g transform="translate(465 382)"><rect width="115" height="74" rx="13" fill="#fffaf4" stroke="#d8c3a8"/><path d="M26 44c20 22 57 24 78-1-8 30-67 33-78 1z" fill="#f3c84f"/></g>
  <g transform="translate(602 374)"><rect width="115" height="74" rx="13" fill="#fffaf4" stroke="#d8c3a8"/><circle cx="57" cy="37" r="23" fill="#c99063"/><circle cx="40" cy="30" r="11" fill="#c99063"/><circle cx="74" cy="30" r="11" fill="#c99063"/><circle cx="50" cy="39" r="3" fill="#4b4039"/><circle cx="65" cy="39" r="3" fill="#4b4039"/></g>
  <g transform="translate(748 365)"><rect x="0" y="54" width="34" height="34" rx="5" fill="#86bfc1"/><rect x="42" y="34" width="34" height="54" rx="5" fill="#efaa8f"/><rect x="84" y="13" width="34" height="75" rx="5" fill="#eac35e"/></g>
</svg>